# xmcd CD database file
#
# Track frame offsets:
#	150
#	19060
#	31631
#	45006
#	60248
#	77485
#	89694
#	101025
#	110499
#	122915
#	147015
#	155945
#	171452
#	188305
#	203981
#	215671
#	228617
#	242502
#	259546
#
# Disc length: 3633 seconds
#
# Revision: 0
# Processed by: cddbd v1.5.2PL0 Copyright (c) Steve Scherf et al.
# Submitted via: CDex 1.70beta2
#
DISCID=f80e2f13
DTITLE=Stan Ruffo and The Instigators - Blues On Tap - Volume One
DYEAR=2000
DGENRE=Blues
TTITLE0=Steamin' Stan Boogie
TTITLE1=Surfnet
TTITLE2=UFO Jump
TTITLE3=Take Away My Breath
TTITLE4=I Ain't Nobody
TTITLE5=Marilee
TTITLE6=Alone With The Blues
TTITLE7=Everytime
TTITLE8=Gumball Mama
TTITLE9=Don't Let The Blues Overtake You
TTITLE10=Jump On This
TTITLE11=Potbelly Pig
TTITLE12=Stay Till Morning
TTITLE13=Suspense
TTITLE14=Veronica
TTITLE15=Snowin'
TTITLE16=I Came To Party
TTITLE17=I'm In Trouble
TTITLE18=Beer Bar Blues
EXTD=YEAR: 2000
EXTT0=
EXTT1=
EXTT2=
EXTT3=
EXTT4=
EXTT5=
EXTT6=
EXTT7=
EXTT8=
EXTT9=
EXTT10=
EXTT11=
EXTT12=
EXTT13=
EXTT14=
EXTT15=
EXTT16=
EXTT17=
EXTT18=
PLAYORDER=
